<svg width="388" height="258" viewBox="0 0 388 258" fill="none" xmlns="http://www.w3.org/2000/svg">
<rect width="388" height="258" fill="#F5F5F5"/>
<rect width="388" height="258" fill="white"/>
<rect x="10.5" y="31.5" width="367" height="215" rx="11.5" fill="white" stroke="#343E51" stroke-width="5"/>
<rect x="177" y="2" width="42" height="45" rx="4" fill="white" stroke="#343E51" stroke-width="4"/>
<path d="M74.3551 80.4545H81.0824L96.9006 119.091H97.446L113.264 80.4545H119.991V127H114.719V91.6364H114.264L99.7188 127H94.6278L80.0824 91.6364H79.6278V127H74.3551V80.4545ZM130.565 127V92.0909H135.929V127H130.565ZM133.293 86.2727C132.247 86.2727 131.346 85.9167 130.588 85.2045C129.846 84.4924 129.474 83.6364 129.474 82.6364C129.474 81.6364 129.846 80.7803 130.588 80.0682C131.346 79.3561 132.247 79 133.293 79C134.338 79 135.232 79.3561 135.974 80.0682C136.732 80.7803 137.111 81.6364 137.111 82.6364C137.111 83.6364 136.732 84.4924 135.974 85.2045C135.232 85.9167 134.338 86.2727 133.293 86.2727ZM159.935 127.727C156.662 127.727 153.844 126.955 151.48 125.409C149.116 123.864 147.298 121.735 146.026 119.023C144.753 116.311 144.116 113.212 144.116 109.727C144.116 106.182 144.768 103.053 146.071 100.341C147.389 97.6136 149.223 95.4848 151.571 93.9545C153.935 92.4091 156.692 91.6364 159.844 91.6364C162.298 91.6364 164.51 92.0909 166.48 93C168.45 93.9091 170.063 95.1818 171.321 96.8182C172.579 98.4545 173.359 100.364 173.662 102.545H168.298C167.889 100.955 166.98 99.5455 165.571 98.3182C164.177 97.0758 162.298 96.4545 159.935 96.4545C157.844 96.4545 156.01 97 154.435 98.0909C152.874 99.1667 151.654 100.689 150.776 102.659C149.912 104.614 149.48 106.909 149.48 109.545C149.48 112.242 149.904 114.591 150.753 116.591C151.616 118.591 152.829 120.144 154.389 121.25C155.965 122.356 157.813 122.909 159.935 122.909C161.329 122.909 162.594 122.667 163.73 122.182C164.866 121.697 165.829 121 166.616 120.091C167.404 119.182 167.965 118.091 168.298 116.818H173.662C173.359 118.879 172.609 120.735 171.412 122.386C170.23 124.023 168.662 125.326 166.707 126.295C164.768 127.25 162.51 127.727 159.935 127.727ZM186.866 106V127H181.503V80.4545H186.866V97.5455H187.321C188.139 95.7424 189.366 94.3106 191.003 93.25C192.654 92.1742 194.851 91.6364 197.594 91.6364C199.973 91.6364 202.056 92.1136 203.844 93.0682C205.632 94.0076 207.018 95.4545 208.003 97.4091C209.003 99.3485 209.503 101.818 209.503 104.818V127H204.139V105.182C204.139 102.409 203.42 100.265 201.98 98.75C200.556 97.2197 198.579 96.4545 196.048 96.4545C194.291 96.4545 192.715 96.8258 191.321 97.5682C189.942 98.3106 188.851 99.3939 188.048 100.818C187.26 102.242 186.866 103.97 186.866 106ZM233.952 127.727C230.588 127.727 227.687 126.985 225.247 125.5C222.823 124 220.952 121.909 219.634 119.227C218.33 116.53 217.679 113.394 217.679 109.818C217.679 106.242 218.33 103.091 219.634 100.364C220.952 97.6212 222.785 95.4848 225.134 93.9545C227.497 92.4091 230.255 91.6364 233.406 91.6364C235.224 91.6364 237.02 91.9394 238.793 92.5455C240.565 93.1515 242.179 94.1364 243.634 95.5C245.088 96.8485 246.247 98.6364 247.111 100.864C247.974 103.091 248.406 105.833 248.406 109.091V111.364H221.497V106.727H242.952C242.952 104.758 242.558 103 241.77 101.455C240.997 99.9091 239.891 98.6894 238.452 97.7955C237.027 96.9015 235.346 96.4545 233.406 96.4545C231.27 96.4545 229.421 96.9848 227.861 98.0455C226.315 99.0909 225.126 100.455 224.293 102.136C223.459 103.818 223.043 105.621 223.043 107.545V110.636C223.043 113.273 223.497 115.508 224.406 117.341C225.33 119.159 226.611 120.545 228.247 121.5C229.884 122.439 231.785 122.909 233.952 122.909C235.361 122.909 236.634 122.712 237.77 122.318C238.921 121.909 239.914 121.303 240.747 120.5C241.58 119.682 242.224 118.667 242.679 117.455L247.861 118.909C247.315 120.667 246.399 122.212 245.111 123.545C243.823 124.864 242.232 125.894 240.338 126.636C238.444 127.364 236.315 127.727 233.952 127.727ZM261.929 80.4545V127H256.565V80.4545H261.929ZM277.116 80.4545V127H271.753V80.4545H277.116ZM301.577 127.727C298.213 127.727 295.312 126.985 292.872 125.5C290.448 124 288.577 121.909 287.259 119.227C285.955 116.53 285.304 113.394 285.304 109.818C285.304 106.242 285.955 103.091 287.259 100.364C288.577 97.6212 290.41 95.4848 292.759 93.9545C295.122 92.4091 297.88 91.6364 301.031 91.6364C302.849 91.6364 304.645 91.9394 306.418 92.5455C308.19 93.1515 309.804 94.1364 311.259 95.5C312.713 96.8485 313.872 98.6364 314.736 100.864C315.599 103.091 316.031 105.833 316.031 109.091V111.364H289.122V106.727H310.577C310.577 104.758 310.183 103 309.395 101.455C308.622 99.9091 307.516 98.6894 306.077 97.7955C304.652 96.9015 302.971 96.4545 301.031 96.4545C298.895 96.4545 297.046 96.9848 295.486 98.0455C293.94 99.0909 292.751 100.455 291.918 102.136C291.084 103.818 290.668 105.621 290.668 107.545V110.636C290.668 113.273 291.122 115.508 292.031 117.341C292.955 119.159 294.236 120.545 295.872 121.5C297.509 122.439 299.41 122.909 301.577 122.909C302.986 122.909 304.259 122.712 305.395 122.318C306.546 121.909 307.539 121.303 308.372 120.5C309.205 119.682 309.849 118.667 310.304 117.455L315.486 118.909C314.94 120.667 314.024 122.212 312.736 123.545C311.448 124.864 309.857 125.894 307.963 126.636C306.069 127.364 303.94 127.727 301.577 127.727ZM72.0739 204V157.455H88.3466C91.589 157.455 94.2633 158.015 96.3693 159.136C98.4754 160.242 100.044 161.735 101.074 163.614C102.104 165.477 102.619 167.545 102.619 169.818C102.619 171.818 102.263 173.47 101.551 174.773C100.854 176.076 99.9299 177.106 98.7784 177.864C97.642 178.621 96.4072 179.182 95.0739 179.545V180C96.4981 180.091 97.9299 180.591 99.3693 181.5C100.809 182.409 102.013 183.712 102.983 185.409C103.953 187.106 104.438 189.182 104.438 191.636C104.438 193.97 103.907 196.068 102.847 197.932C101.786 199.795 100.112 201.273 97.8239 202.364C95.536 203.455 92.5587 204 88.892 204H72.0739ZM77.7102 199H88.892C92.5739 199 95.1875 198.288 96.733 196.864C98.2936 195.424 99.0739 193.682 99.0739 191.636C99.0739 190.061 98.6723 188.606 97.8693 187.273C97.0663 185.924 95.9223 184.848 94.4375 184.045C92.9527 183.227 91.1951 182.818 89.1648 182.818H77.7102V199ZM77.7102 177.909H88.1648C89.8617 177.909 91.392 177.576 92.7557 176.909C94.1345 176.242 95.2254 175.303 96.0284 174.091C96.8466 172.879 97.2557 171.455 97.2557 169.818C97.2557 167.773 96.5436 166.038 95.1193 164.614C93.6951 163.174 91.4375 162.455 88.3466 162.455H77.7102V177.909ZM127.153 204.727C124.002 204.727 121.237 203.977 118.858 202.477C116.494 200.977 114.646 198.879 113.312 196.182C111.994 193.485 111.335 190.333 111.335 186.727C111.335 183.091 111.994 179.917 113.312 177.205C114.646 174.492 116.494 172.386 118.858 170.886C121.237 169.386 124.002 168.636 127.153 168.636C130.305 168.636 133.063 169.386 135.426 170.886C137.805 172.386 139.653 174.492 140.972 177.205C142.305 179.917 142.972 183.091 142.972 186.727C142.972 190.333 142.305 193.485 140.972 196.182C139.653 198.879 137.805 200.977 135.426 202.477C133.063 203.977 130.305 204.727 127.153 204.727ZM127.153 199.909C129.547 199.909 131.517 199.295 133.062 198.068C134.608 196.841 135.752 195.227 136.494 193.227C137.237 191.227 137.608 189.061 137.608 186.727C137.608 184.394 137.237 182.22 136.494 180.205C135.752 178.189 134.608 176.561 133.062 175.318C131.517 174.076 129.547 173.455 127.153 173.455C124.759 173.455 122.79 174.076 121.244 175.318C119.699 176.561 118.555 178.189 117.812 180.205C117.07 182.22 116.699 184.394 116.699 186.727C116.699 189.061 117.07 191.227 117.812 193.227C118.555 195.227 119.699 196.841 121.244 198.068C122.79 199.295 124.759 199.909 127.153 199.909ZM173.159 189.727V169.091H178.523V204H173.159V198.091H172.795C171.977 199.864 170.705 201.371 168.977 202.614C167.25 203.841 165.068 204.455 162.432 204.455C160.25 204.455 158.311 203.977 156.614 203.023C154.917 202.053 153.583 200.598 152.614 198.659C151.644 196.705 151.159 194.242 151.159 191.273V169.091H156.523V190.909C156.523 193.455 157.235 195.485 158.659 197C160.098 198.515 161.932 199.273 164.159 199.273C165.492 199.273 166.848 198.932 168.227 198.25C169.621 197.568 170.788 196.523 171.727 195.114C172.682 193.705 173.159 191.909 173.159 189.727ZM188.347 204V169.091H193.528V174.364H193.892C194.528 172.636 195.68 171.235 197.347 170.159C199.013 169.083 200.892 168.545 202.983 168.545C203.377 168.545 203.869 168.553 204.46 168.568C205.051 168.583 205.498 168.606 205.801 168.636V174.091C205.619 174.045 205.203 173.977 204.551 173.886C203.915 173.78 203.241 173.727 202.528 173.727C200.831 173.727 199.316 174.083 197.983 174.795C196.665 175.492 195.619 176.462 194.847 177.705C194.089 178.932 193.71 180.333 193.71 181.909V204H188.347ZM224.278 204.727C221.369 204.727 218.801 203.992 216.574 202.523C214.347 201.038 212.604 198.947 211.347 196.25C210.089 193.538 209.46 190.333 209.46 186.636C209.46 182.97 210.089 179.788 211.347 177.091C212.604 174.394 214.354 172.311 216.597 170.841C218.839 169.371 221.43 168.636 224.369 168.636C226.642 168.636 228.438 169.015 229.756 169.773C231.089 170.515 232.104 171.364 232.801 172.318C233.513 173.258 234.066 174.03 234.46 174.636H234.915V157.455H240.278V204H235.097V198.636H234.46C234.066 199.273 233.506 200.076 232.778 201.045C232.051 202 231.013 202.856 229.665 203.614C228.316 204.356 226.521 204.727 224.278 204.727ZM225.006 199.909C227.157 199.909 228.975 199.348 230.46 198.227C231.945 197.091 233.074 195.523 233.847 193.523C234.619 191.508 235.006 189.182 235.006 186.545C235.006 183.939 234.627 181.659 233.869 179.705C233.112 177.735 231.991 176.205 230.506 175.114C229.021 174.008 227.188 173.455 225.006 173.455C222.733 173.455 220.839 174.038 219.324 175.205C217.824 176.356 216.695 177.924 215.938 179.909C215.195 181.879 214.824 184.091 214.824 186.545C214.824 189.03 215.203 191.288 215.96 193.318C216.733 195.333 217.869 196.939 219.369 198.136C220.884 199.318 222.763 199.909 225.006 199.909ZM265.028 204.727C261.877 204.727 259.112 203.977 256.733 202.477C254.369 200.977 252.521 198.879 251.188 196.182C249.869 193.485 249.21 190.333 249.21 186.727C249.21 183.091 249.869 179.917 251.188 177.205C252.521 174.492 254.369 172.386 256.733 170.886C259.112 169.386 261.877 168.636 265.028 168.636C268.18 168.636 270.938 169.386 273.301 170.886C275.68 172.386 277.528 174.492 278.847 177.205C280.18 179.917 280.847 183.091 280.847 186.727C280.847 190.333 280.18 193.485 278.847 196.182C277.528 198.879 275.68 200.977 273.301 202.477C270.938 203.977 268.18 204.727 265.028 204.727ZM265.028 199.909C267.422 199.909 269.392 199.295 270.938 198.068C272.483 196.841 273.627 195.227 274.369 193.227C275.112 191.227 275.483 189.061 275.483 186.727C275.483 184.394 275.112 182.22 274.369 180.205C273.627 178.189 272.483 176.561 270.938 175.318C269.392 174.076 267.422 173.455 265.028 173.455C262.634 173.455 260.665 174.076 259.119 175.318C257.574 176.561 256.43 178.189 255.688 180.205C254.945 182.22 254.574 184.394 254.574 186.727C254.574 189.061 254.945 191.227 255.688 193.227C256.43 195.227 257.574 196.841 259.119 198.068C260.665 199.295 262.634 199.909 265.028 199.909ZM294.398 183V204H289.034V169.091H294.216V174.545H294.67C295.489 172.773 296.731 171.348 298.398 170.273C300.064 169.182 302.216 168.636 304.852 168.636C307.216 168.636 309.284 169.121 311.057 170.091C312.83 171.045 314.208 172.5 315.193 174.455C316.178 176.394 316.67 178.848 316.67 181.818V204H311.307V182.182C311.307 179.439 310.595 177.303 309.17 175.773C307.746 174.227 305.792 173.455 303.307 173.455C301.595 173.455 300.064 173.826 298.716 174.568C297.383 175.311 296.33 176.394 295.557 177.818C294.784 179.242 294.398 180.97 294.398 183Z" fill="#343E51"/>
</svg>
