<svg id="acfd8322-e5f9-4384-a918-481a3032e951" data-name="a53b020d-ac2d-489c-877d-35b0749beb2b" xmlns="http://www.w3.org/2000/svg" width="395.53" height="120" viewBox="0 0 395.53 120">
  <defs>
    <style>
      .a973f65c-c5f9-4a85-a200-e77ed7822a35 {
        fill: #2279bc;
      }
    </style>
  </defs>
  <g id="b63852fe-bb2b-49fb-ac6b-892f5cd3a7b5" data-name="b4b88289-79cd-4ae7-ad9a-442d3010a56d">
    <g id="e7299db7-2870-4bcb-a1f8-b9f84897ccfd" data-name="f264df7b-eaac-4c15-b9fd-5bfdd99dd2aa">
      <rect class="a973f65c-c5f9-4a85-a200-e77ed7822a35" x="140.61" y="1.53" width="18.57" height="116.9"/>
      <path class="a973f65c-c5f9-4a85-a200-e77ed7822a35" d="M259.58,18.18A56.2,56.2,0,0,0,240.44,6,69.75,69.75,0,0,0,215.6,1.53H173.79v117H215.6A69.33,69.33,0,0,0,240.44,114a55.08,55.08,0,0,0,19.14-12,53.87,53.87,0,0,0,12.3-18.5A62.35,62.35,0,0,0,276.23,60a62.34,62.34,0,0,0-4.35-23.34A54.41,54.41,0,0,0,259.58,18.18Zm-1.92,42c0,25-17.31,42.38-42,42.38H192v-85h23.73c25,0,42,17.1,42,42.48Z" transform="translate(0)"/>
      <path class="a973f65c-c5f9-4a85-a200-e77ed7822a35" d="M382.63,83.37v.15a46.16,46.16,0,0,1-37.23,18.74,40.31,40.31,0,0,1-41.55-39c0-.89,0-1.79,0-2.68C303.86,36.36,321.7,18,345.49,18a45.57,45.57,0,0,1,36.42,18.93h0l13-11.73h0a54.63,54.63,0,0,0-20.58-18A64.44,64.44,0,0,0,345,0,60.33,60.33,0,0,0,302.6,16.83a58,58,0,0,0-13,19.17,63.32,63.32,0,0,0-4.8,24.57,62.35,62.35,0,0,0,4.71,24.3,55.81,55.81,0,0,0,12.84,18.74A60.2,60.2,0,0,0,344.53,120a65.84,65.84,0,0,0,30-7.14,59.53,59.53,0,0,0,21-18h0Z" transform="translate(0)"/>
      <path class="a973f65c-c5f9-4a85-a200-e77ed7822a35" d="M22.09,107.06A61.33,61.33,0,0,0,41.56,118a3.11,3.11,0,0,0,1,.15H79.83a3.3,3.3,0,0,0,1-.15,61.79,61.79,0,0,0,14.1-7,1.16,1.16,0,0,0,.33-1.59,1.12,1.12,0,0,0-1-.51H58a8.3,8.3,0,0,1-7-3.9,1.66,1.66,0,0,0-1.29-.69H23.05a1.5,1.5,0,0,0-1.5,1.5h0a1.45,1.45,0,0,0,.54,1.17Z" transform="translate(0)"/>
      <path class="a973f65c-c5f9-4a85-a200-e77ed7822a35" d="M100.26,12.93a61.83,61.83,0,0,0-19-10.74,6.82,6.82,0,0,0-2-.33H43a6.82,6.82,0,0,0-2,.33A62,62,0,0,0,27.43,9,1.08,1.08,0,0,0,28,11H64.39a8.38,8.38,0,0,1,7.07,4,1.64,1.64,0,0,0,1.29.69H99.27a1.57,1.57,0,0,0,1-2.76Z" transform="translate(0)"/>
      <path class="a973f65c-c5f9-4a85-a200-e77ed7822a35" d="M122.31,57.6A2.31,2.31,0,0,0,120,55.41H96.36a3,3,0,0,1-2.79-1.77,2.33,2.33,0,0,0-2.07-1.29H3.25a3,3,0,0,0-3,2.82A32.43,32.43,0,0,0,0,60v2.4a2.25,2.25,0,0,0,2.28,2.19H26a3,3,0,0,1,2.76,1.77,2.35,2.35,0,0,0,2.1,1.29H119.1a3,3,0,0,0,3-2.82c0-1.59.18-3.21.18-4.83A19.22,19.22,0,0,0,122.31,57.6Z" transform="translate(0)"/>
      <path class="a973f65c-c5f9-4a85-a200-e77ed7822a35" d="M81.87,37.05a7.6,7.6,0,0,1,6.45,3.54,2.33,2.33,0,0,0,2,1h26.07a2.31,2.31,0,0,0,2.25-2.31,2.66,2.66,0,0,0,0-.69,62.49,62.49,0,0,0-5.28-10.77,3,3,0,0,0-2.61-1.44h-99A3,3,0,0,0,9,27.78a59.39,59.39,0,0,0-3.54,6.57,1.89,1.89,0,0,0,.9,2.52h0a1.88,1.88,0,0,0,.81.18Z" transform="translate(0)"/>
      <path class="a973f65c-c5f9-4a85-a200-e77ed7822a35" d="M40.39,83A7.54,7.54,0,0,1,34,79.41a2.3,2.3,0,0,0-1.95-1H6a2.28,2.28,0,0,0-2.28,2.28h0a1.91,1.91,0,0,0,.15.81A62.51,62.51,0,0,0,9,92.22a3,3,0,0,0,2.58,1.44h99a3,3,0,0,0,2.61-1.44,59.39,59.39,0,0,0,3.54-6.57,1.91,1.91,0,0,0-1-2.52A1.63,1.63,0,0,0,115,83Z" transform="translate(0)"/>
    </g>
  </g>
</svg>
